<?xml version="1.0" encoding="UTF-8" standalone="no"?> <svg xmlns="http://www.w3.org/2000/svg" width="1500.000000pt" height="1600.000000pt" viewBox="0 0 1500.000000 1600.000000" preserveAspectRatio="xMidYMid meet"> <g transform="translate(0.000000,1600.000000) scale(0.100000,-0.100000)" fill="#000000" stroke="none"> <path d="M8040 12070 c-145 -16 -282 -43 -389 -76 -25 -8 -53 -14 -63 -14 -10 0 -26 -4 -36 -9 -9 -5 -69 -26 -132 -46 -63 -20 -129 -43 -147 -51 -17 -8 -36 -14 -42 -14 -6 0 -19 -4 -29 -10 -35 -19 -186 -80 -199 -80 -7 0 -13 -4 -13 -10 0 -5 -4 -10 -10 -10 -14 0 -132 -55 -261 -120 -59 -30 -143 -73 -186 -95 -43 -22 -80 -43 -83 -47 -3 -4 -17 -12 -30 -18 -14 -5 -38 -19 -55 -30 -16 -11 -37 -23 -45 -27 -8 -3 -33 -18 -55 -32 -73 -46 -80 -51 -97 -57 -10 -3 -18 -10 -18 -14 0 -4 -12 -12 -26 -19 -15 -6 -101 -61 -191 -121 -210 -140 -196 -134 -224 -111 -13 10 -40 27 -59 37 -41 23 -93 56 -100 64 -3 4 -12 10 -20 14 -23 11 -47 26 -142 89 -48 31 -90 57 -93 57 -8 0 -68 43 -76 54 -4 5 -20 6 -35 3 -16 -3 -71 -12 -122 -21 -52 -8 -102 -18 -111 -21 -10 -3 -47 -10 -82 -14 -105 -15 -243 -39 -259 -45 -8 -3 -51 -10 -95 -15 -121 -15 -185 -31 -185 -46 0 -23 -51 -55 -86 -55 -30 0 -34 3 -34 25 0 27 -6 30 -29 16 -12 -7 -11 -20 3 -82 9 -41 21 -95 27 -121 6 -26 14 -71 19 -100 9 -63 27 -155 41 -220 6 -26 15 -71 20 -100 15 -92 37 -211 48 -273 26 -132 42 -212 51 -252 5 -23 13 -67 16 -98 l7 -55 -49 -49 c-58 -58 -178 -190 -230 -252 -20 -24 -47 -54 -60 -66 -13 -12 -24 -27 -24 -33 0 -5 -4 -10 -8 -10 -4 0 -26 -23 -47 -52 -22 -28 -44 -56 -50 -62 -6 -6 -35 -42 -65 -81 -30 -38 -61 -76 -68 -84 -7 -8 -21 -26 -30 -40 -19 -30 -24 -36 -53 -71 -12 -14 -35 -46 -51 -72 -16 -27 -34 -48 -39 -48 -5 0 -9 -5 -9 -10 0 -12 -41 -73 -52 -78 -5 -2 -8 -8 -8 -13 0 -11 -42 -72 -52 -77 -5 -2 -8 -8 -8 -13 0 -6 -19 -40 -43 -77 -24 -37 -47 -74 -50 -82 -4 -8 -16 -28 -27 -45 -11 -16 -25 -41 -30 -55 -6 -13 -14 -27 -18 -30 -15 -11 -192 -382 -192 -402 0 -5 -6 -22 -14 -36 -17 -31 -71 -191 -81 -242 -4 -19 -11 -41 -15 -50 -46 -92 -67 -590 -24 -590 9 0 14 12 14 38 0 36 3 48 35 167 9 33 20 77 26 98 5 21 13 45 18 55 5 9 17 40 26 67 17 48 31 83 59 150 38 88 156 321 201 395 28 47 54 92 58 100 25 51 219 340 229 340 4 0 8 5 8 11 0 9 210 292 267 359 12 14 47 56 80 95 32 38 69 82 83 96 14 15 52 58 85 95 174 199 272 297 281 283 5 -8 30 -10 83 -5 96 9 83 9 176 -3 76 -9 81 -9 97 12 19 24 24 77 8 77 -16 0 -47 35 -53 61 -3 13 -10 43 -16 66 -10 37 -8 47 11 80 12 21 39 57 62 81 33 35 46 42 78 42 36 0 78 26 78 48 0 14 42 48 84 69 l39 20 49 -24 c39 -19 53 -21 64 -12 19 16 18 21 -11 55 -16 18 -21 32 -15 38 13 13 180 -8 217 -27 16 -8 44 -21 63 -29 107 -47 255 -122 258 -129 2 -5 8 -9 13 -9 6 0 31 -10 58 -22 41 -20 51 -30 67 -72 16 -42 24 -51 54 -59 19 -5 37 -12 40 -16 7 -10 45 -30 170 -89 176 -84 239 -112 249 -112 5 0 11 -5 13 -11 2 -7 16 -4 38 9 51 32 107 20 196 -40 40 -27 77 -55 81 -61 5 -7 25 -58 43 -114 19 -57 39 -103 45 -103 16 0 75 -57 75 -73 0 -18 34 -91 61 -132 10 -16 22 -38 25 -47 3 -10 27 -27 53 -39 114 -52 162 -77 251 -129 52 -31 102 -59 111 -62 12 -5 36 18 90 85 40 51 76 94 80 97 3 3 30 34 59 70 30 36 61 72 69 81 9 9 25 27 36 40 35 41 227 252 257 282 15 16 28 32 28 37 0 16 -172 176 -244 228 -20 14 -36 29 -36 34 0 4 -6 8 -14 8 -8 0 -16 4 -18 8 -4 12 -153 112 -166 112 -6 0 -12 4 -14 8 -3 9 -83 56 -200 117 -155 81 -234 123 -293 155 -33 18 -82 44 -108 58 -61 32 -84 71 -66 114 7 17 53 70 102 119 88 87 92 89 138 89 26 0 60 -5 76 -11 15 -6 51 -17 78 -25 28 -8 64 -19 80 -24 17 -5 62 -18 100 -30 63 -18 101 -30 200 -60 82 -25 175 -52 222 -65 l53 -15 66 65 c36 36 70 65 75 65 5 0 9 11 9 25 0 24 -2 26 -37 19 -21 -4 -48 -11 -61 -15 -13 -5 -27 -9 -31 -9 -5 0 -23 35 -42 78 -60 138 -59 136 -163 206 l-99 66 -343 0 c-189 0 -365 -4 -391 -10 -26 -5 -106 -14 -178 -20 -71 -5 -172 -14 -222 -20 l-93 -11 -67 37 c-38 21 -81 46 -98 55 -16 10 -44 25 -61 33 -17 8 -34 19 -38 24 -3 6 19 25 50 44 31 18 68 41 83 50 14 10 33 21 41 25 8 4 58 32 110 63 52 30 113 64 135 75 22 11 42 22 45 25 10 11 275 140 288 140 6 0 12 5 12 10 0 6 6 10 13 10 6 0 26 7 42 16 17 8 68 31 115 51 47 19 99 41 115 48 56 25 192 75 202 75 6 0 24 7 39 15 16 8 38 15 50 15 11 0 24 4 30 8 5 5 47 18 94 31 47 12 100 26 117 32 87 27 342 66 488 75 122 7 375 -22 400 -47 5 -5 18 -9 29 -9 22 0 136 -53 180 -84 66 -46 126 -102 126 -116 0 -5 4 -10 9 -10 17 0 93 -130 111 -190 15 -51 23 110 11 224 -20 182 -73 304 -178 413 -93 95 -192 148 -363 194 -86 23 -361 34 -490 19z"></path> <path d="M9828 10140 c-26 -28 -55 -50 -66 -50 -13 0 -51 -34 -102 -89 -78 -85 -97 -110 -118 -156 -5 -11 -21 -31 -34 -45 -13 -14 -42 -54 -63 -90 -42 -71 -64 -94 -140 -155 -27 -21 -53 -44 -57 -49 -4 -6 -13 -4 -24 5 -24 20 -107 58 -116 53 -4 -3 -3 -15 1 -27 5 -12 17 -49 26 -82 10 -33 24 -78 30 -100 7 -22 21 -67 31 -100 10 -33 19 -61 20 -63 0 -1 15 5 32 14 40 20 61 13 113 -37 l41 -39 44 15 c25 8 54 15 64 15 11 0 28 4 38 10 9 5 34 16 55 24 25 10 37 21 37 35 0 11 3 26 6 34 3 10 -3 18 -18 22 -13 4 -25 11 -28 14 -3 3 -18 11 -35 16 -23 8 -31 17 -33 39 -6 49 6 76 33 76 13 0 26 4 29 9 3 5 18 12 33 16 15 3 30 10 33 13 21 28 74 52 115 52 48 0 54 3 136 84 l30 29 32 -29 c57 -52 64 -60 72 -83 5 -18 12 -21 33 -17 70 15 182 24 241 19 l66 -5 46 48 c59 64 60 65 48 105 -7 26 -26 45 -75 79 -36 25 -71 50 -78 55 -19 16 -73 45 -85 45 -6 0 -11 -20 -11 -48 0 -42 -4 -52 -38 -85 -36 -35 -38 -36 -74 -24 -21 7 -50 24 -65 38 -30 27 -96 53 -155 64 -21 3 -60 17 -87 31 l-49 26 16 29 c10 16 20 29 25 29 4 0 7 5 7 11 0 6 19 36 43 67 67 88 87 126 87 166 0 34 -2 36 -33 36 -27 0 -42 -9 -79 -50z"></path> <path d="M8438 8947 c-41 -41 -201 -186 -262 -237 -16 -14 -40 -36 -55 -50 -14 -14 -51 -45 -81 -70 -30 -25 -57 -47 -60 -50 -3 -3 -17 -15 -32 -26 l-27 -21 27 -14 c37 -19 86 -52 90 -61 2 -5 8 -8 14 -8 11 0 130 -70 139 -82 6 -10 82 -26 173 -37 54 -7 74 -14 92 -35 19 -20 30 -24 54 -20 21 5 42 -1 77 -21 26 -16 50 -31 53 -34 3 -3 14 -11 25 -17 18 -10 21 -26 28 -134 4 -68 9 -126 12 -128 2 -2 26 4 54 13 47 15 53 15 82 1 18 -9 38 -16 44 -16 7 0 23 -16 36 -35 30 -44 72 -47 115 -10 16 14 35 23 42 20 8 -3 27 -5 43 -5 21 0 29 -5 29 -17 0 -40 21 7 26 58 6 58 11 46 -94 239 -19 36 -56 104 -81 152 -80 150 -103 193 -110 198 -3 3 -15 21 -25 40 -11 19 -39 61 -63 93 -23 31 -43 62 -43 67 0 6 -4 10 -8 10 -5 0 -20 15 -33 34 -53 74 -213 246 -229 246 -5 0 -28 -19 -52 -43z"></path> <path d="M6134 5421 c-2 -2 -4 -154 -4 -336 0 -406 2 -413 105 -461 88 -42 238 -29 310 26 48 36 55 68 55 242 0 158 -1 165 -25 201 -29 41 -96 77 -146 77 -22 0 -46 -12 -78 -37 -25 -21 -47 -41 -49 -45 -2 -5 -8 -8 -13 -8 -5 0 -9 73 -9 169 l0 169 -71 4 c-39 2 -73 1 -75 -1z m298 -428 c15 -14 18 -32 18 -121 0 -95 -2 -108 -22 -129 -27 -29 -86 -31 -119 -4 -22 18 -24 27 -27 134 l-4 115 44 10 c65 15 90 14 110 -5z"></path> <path d="M7284 5415 c-3 -6 -3 -188 -2 -405 l3 -395 70 0 70 0 3 113 c1 61 6 112 11 112 4 0 21 -26 37 -57 16 -32 32 -60 36 -63 4 -3 12 -17 17 -30 14 -33 34 -63 46 -72 13 -10 162 -10 168 0 3 4 -35 67 -84 140 l-88 133 27 42 c15 23 53 80 84 126 32 47 56 86 55 87 -1 2 -38 4 -82 5 l-80 2 -42 -69 c-23 -38 -52 -88 -64 -111 -12 -24 -26 -43 -30 -43 -5 0 -10 111 -11 246 l-3 246 -69 2 c-38 0 -70 -3 -72 -9z"></path> <path d="M7824 5421 c-2 -2 -4 -40 -4 -83 l0 -78 80 0 80 0 0 80 c0 44 -3 80 -7 81 -50 3 -146 3 -149 0z"></path> <path d="M4952 5078 c3 -291 4 -305 25 -345 50 -92 151 -138 289 -131 102 5 184 43 229 106 l30 44 3 314 3 314 -75 0 -75 0 -3 -293 c-3 -283 -4 -293 -24 -313 -33 -33 -106 -45 -166 -27 -43 12 -52 20 -69 56 -17 38 -19 68 -19 310 l0 267 -76 0 -75 0 3 -302z"></path> <path d="M8698 5285 c-24 -20 -28 -32 -28 -74 0 -45 -3 -51 -23 -56 -13 -4 -27 -5 -33 -4 -28 5 -34 -3 -34 -50 l0 -50 43 -3 42 -3 3 -174 c2 -157 4 -176 23 -203 34 -47 87 -68 174 -68 l75 0 0 69 0 69 -39 -5 c-21 -3 -48 0 -60 6 -20 11 -21 19 -21 161 l0 150 66 0 65 0 -3 52 -3 52 -62 -3 -63 -2 0 80 0 81 -47 0 c-36 -1 -55 -7 -75 -25z"></path> <path d="M6843 5151 c-106 -39 -123 -75 -123 -261 0 -184 16 -221 119 -266 46 -21 69 -24 170 -24 162 0 161 0 161 69 l0 57 -124 -4 c-123 -4 -125 -4 -150 21 -17 17 -26 37 -26 56 l0 30 158 3 157 3 3 80 c4 99 -11 154 -52 193 -63 60 -192 79 -293 43z m172 -126 c25 -24 31 -49 19 -79 -5 -13 -22 -16 -85 -16 l-79 0 0 39 c0 31 6 44 26 60 37 29 89 27 119 -4z"></path> <path d="M8200 5154 c-25 -8 -57 -29 -72 -47 -25 -28 -28 -39 -28 -107 0 -116 32 -152 155 -170 101 -16 117 -24 113 -58 -6 -51 -53 -59 -225 -35 l-43 6 0 -65 c0 -65 0 -66 31 -72 17 -3 83 -6 146 -6 193 0 249 43 241 187 -2 48 -8 78 -16 81 -7 2 -12 9 -12 15 -1 23 -45 44 -115 56 -129 21 -125 20 -125 51 0 45 27 54 142 46 l99 -6 -3 62 c-3 61 -4 63 -33 69 -58 13 -209 8 -255 -7z"></path> <path d="M9113 5163 l-53 -4 0 -69 0 -69 103 6 c118 6 157 -4 157 -40 0 -23 -4 -24 -77 -30 -176 -15 -233 -60 -233 -185 0 -106 50 -163 149 -170 51 -3 59 -1 90 28 18 17 43 37 55 45 20 13 21 12 21 -23 l0 -37 54 -3 c108 -6 101 -19 101 196 0 262 -15 306 -118 345 -41 17 -113 19 -249 10z m207 -352 c0 -43 -5 -47 -83 -62 -61 -11 -87 1 -87 40 0 45 22 55 133 59 37 2 37 2 37 -37z"></path> <path d="M9805 5125 c-27 -24 -53 -45 -57 -45 -4 0 -8 16 -10 36 l-3 36 -70 0 -70 0 0 -268 0 -269 70 0 70 0 3 187 2 186 51 11 c67 15 84 14 99 -4 10 -12 28 -114 30 -172 0 -7 6 -12 13 -10 7 1 12 -9 12 -28 0 -23 -4 -29 -18 -27 -15 3 -17 -5 -13 -70 l3 -73 53 -3 c51 -3 70 6 70 33 0 6 -5 3 -10 -5 -8 -12 -10 -11 -10 6 0 12 -7 27 -15 34 -8 7 -12 16 -9 21 3 5 -4 9 -15 9 -11 0 -25 9 -31 20 -10 18 -7 24 13 21 11 -2 8 13 -5 29 -11 12 -10 12 5 0 16 -11 22 -9 50 16 17 16 35 34 40 39 4 6 7 60 5 122 -4 129 -15 153 -88 191 -69 35 -106 30 -165 -23z"></path> <path d="M7824 5145 c-3 -6 -3 -127 -2 -270 l3 -260 54 -3 c30 -2 65 -1 78 3 l23 5 0 265 c0 146 -3 265 -7 266 -75 5 -146 2 -149 -6z"></path> <path d="M5630 5090 l0 -59 116 -3 117 -3 -31 -35 c-73 -83 -85 -97 -114 -137 -17 -24 -35 -43 -40 -43 -4 0 -8 -4 -8 -9 0 -6 -13 -25 -30 -43 -26 -28 -30 -40 -30 -90 l0 -58 218 2 217 3 3 58 3 57 -130 0 c-71 0 -132 4 -135 8 -3 4 11 25 30 46 19 20 34 39 34 42 0 2 8 12 18 22 9 10 42 49 72 87 30 37 63 75 73 84 12 11 17 31 17 73 l0 58 -200 0 -200 0 0 -60z"></path> <path d="M10030 4772 c0 -13 -2 -14 -9 -4 -6 11 -11 10 -25 -3 -20 -21 -21 -32 -1 -15 14 12 15 10 11 -13 -3 -16 0 -26 6 -24 6 1 13 -4 15 -11 3 -8 -1 -10 -14 -6 -16 6 -16 5 2 -9 31 -24 45 -10 45 43 0 33 -5 50 -15 54 -10 3 -15 -1 -15 -12z"></path> <path d="M7200 4183 l-25 -4 2 -197 2 -197 25 -3 26 -3 0 205 c0 113 -1 205 -2 205 -2 -1 -14 -4 -28 -6z"></path> <path d="M7495 4164 c-49 -18 -55 -27 -55 -93 0 -45 4 -56 25 -73 l25 -20 -30 -35 c-28 -31 -31 -41 -26 -76 10 -67 33 -82 125 -82 103 0 119 13 123 99 3 59 4 61 33 66 27 5 31 10 27 40 -1 6 -45 10 -107 10 -97 0 -106 2 -129 25 -25 25 -26 32 -12 73 7 20 14 22 82 22 66 0 74 2 74 19 0 11 -8 22 -17 25 -50 14 -101 14 -138 0z m143 -251 c2 -17 -4 -46 -13 -62 -14 -28 -20 -31 -64 -31 -41 0 -51 4 -65 25 -22 33 -20 44 11 77 24 25 34 29 78 26 48 -3 50 -4 53 -35z"></path> <path d="M5860 4162 c-5 -2 -10 -12 -10 -23 0 -17 8 -19 61 -19 l60 0 -1 -117 c-2 -175 -1 -185 10 -178 6 3 10 22 10 41 0 22 4 33 13 32 9 -2 13 26 15 110 l3 112 49 0 c45 0 50 2 50 23 0 22 -2 22 -125 22 -69 0 -129 -1 -135 -3z"></path> <path d="M7889 4165 c0 0 -2 -10 -3 -22 -2 -21 1 -23 51 -23 l53 0 0 -170 0 -170 25 0 25 0 0 170 0 170 56 0 c50 0 55 2 52 21 -3 19 -10 20 -131 22 -70 1 -127 2 -128 2z"></path> <path d="M6363 4050 c-14 -6 -23 -18 -23 -31 0 -20 4 -21 46 -15 69 9 94 0 94 -35 0 -29 -1 -29 -59 -29 -53 0 -62 -3 -81 -27 -17 -22 -21 -37 -17 -71 2 -24 7 -46 10 -49 3 -3 25 -7 49 -10 34 -4 48 0 68 17 l25 22 3 -21 c3 -16 11 -21 33 -21 l29 0 0 111 0 111 -31 29 c-25 24 -40 29 -78 28 -25 0 -56 -4 -68 -9z m117 -167 c0 -23 -8 -32 -40 -47 -32 -15 -42 -17 -55 -6 -30 25 -15 62 30 73 51 12 65 8 65 -20z"></path> <path d="M6933 4044 c-39 -19 -55 -63 -52 -136 5 -108 27 -128 144 -128 54 0 63 3 68 20 5 19 0 20 -62 20 -70 0 -101 16 -101 52 0 22 21 28 106 28 l74 0 0 48 c-1 54 -12 72 -57 95 -40 21 -79 21 -120 1z m95 -40 c16 -5 22 -14 22 -35 0 -29 -1 -29 -60 -29 -53 0 -60 2 -60 19 0 41 41 60 98 45z"></path> <path d="M8193 4038 c-38 -23 -47 -57 -41 -153 5 -86 18 -98 106 -103 56 -3 71 -1 92 16 21 17 25 30 28 96 5 99 -1 120 -44 145 -44 26 -99 26 -141 -1z m111 -39 c23 -18 26 -27 26 -82 -1 -77 -14 -97 -65 -97 -51 0 -64 20 -65 97 0 55 3 63 28 82 34 26 43 26 76 0z"></path> <path d="M8980 4042 c-34 -23 -40 -32 -40 -68 0 -33 31 -74 57 -74 9 0 33 -5 55 -12 34 -10 39 -15 36 -37 -3 -25 -6 -26 -75 -29 -65 -3 -73 -5 -73 -22 0 -18 7 -20 80 -20 67 0 83 3 100 20 20 20 26 63 14 95 -9 23 -57 45 -99 45 -32 0 -35 2 -35 30 0 25 4 30 35 36 19 3 46 3 60 0 23 -6 25 -3 25 24 0 30 0 30 -57 29 -37 0 -67 -6 -83 -17z"></path> <path d="M6140 4048 c0 -2 -3 -63 -6 -136 l-5 -133 27 3 c27 3 28 4 25 65 -3 75 15 114 64 137 27 13 35 23 35 43 0 20 -4 24 -17 18 -10 -4 -26 -10 -35 -12 -10 -3 -18 -12 -18 -19 0 -8 -7 -14 -16 -14 -10 0 -14 7 -12 23 2 16 -3 23 -19 25 -13 2 -23 2 -23 0z"></path> <path d="M6597 4018 c3 -18 12 -44 20 -58 7 -14 13 -32 13 -41 0 -9 7 -30 15 -45 8 -16 15 -38 15 -49 0 -30 19 -45 56 -45 35 0 34 -1 87 160 14 41 28 83 32 93 6 14 2 17 -23 17 -26 0 -31 -4 -37 -36 -3 -20 -10 -44 -14 -53 -5 -9 -17 -42 -27 -74 -16 -53 -19 -57 -31 -41 -7 10 -13 26 -13 36 0 10 -4 26 -9 36 -6 9 -17 43 -27 75 -14 48 -20 57 -40 57 -21 0 -23 -3 -17 -32z"></path> <path d="M8460 3932 c0 -102 3 -121 18 -135 25 -23 84 -21 115 3 14 11 28 20 31 20 3 0 6 -9 6 -20 0 -15 7 -20 25 -20 l25 0 0 135 0 135 -25 0 c-25 0 -25 0 -25 -98 l0 -98 -33 -12 c-79 -29 -85 -20 -89 118 -3 80 -4 85 -25 88 -23 3 -23 2 -23 -116z"></path> <path d="M8760 3915 c0 -136 0 -136 23 -133 20 3 22 9 27 86 5 90 13 102 72 124 21 7 27 15 24 31 -4 28 -45 26 -65 -3 -18 -26 -29 -25 -33 3 -2 14 -11 23 -25 25 -23 3 -23 3 -23 -133z"></path> <path d="M0 500 l0 -500 7500 0 7500 0 0 500 0 500 -7500 0 -7500 0 0 -500z m860 144 l0 -56 34 6 c41 8 92 -11 121 -44 17 -19 21 -39 24 -141 l3 -119 -36 0 -36 0 0 104 c0 121 -9 139 -69 134 l-36 -3 -3 -117 -3 -118 -34 0 -35 0 0 205 0 205 35 0 35 0 0 -56z m630 -54 l49 0 3 37 c2 30 9 41 36 56 l32 19 0 -56 0 -56 41 0 c39 0 40 -1 37 -32 -3 -30 -6 -33 -40 -36 l-38 -3 0 -66 c0 -71 16 -103 52 -103 13 0 18 -8 18 -30 0 -28 -3 -30 -36 -30 -75 0 -104 44 -104 160 l0 70 -50 0 -50 0 0 -69 c0 -74 14 -101 51 -101 14 0 19 -7 19 -30 0 -28 -2 -30 -39 -30 -28 0 -49 7 -68 24 -26 23 -28 30 -31 115 -3 70 -7 91 -18 91 -9 0 -14 12 -14 35 0 24 5 35 15 35 11 0 15 11 15 38 0 33 4 40 33 54 l32 15 3 -53 3 -54 49 0z m1010 55 l0 -55 35 0 c33 0 35 -2 35 -35 0 -33 -2 -35 -35 -35 l-35 0 0 -76 c0 -75 0 -76 30 -87 23 -9 30 -17 30 -39 0 -26 -3 -28 -37 -28 -71 1 -93 37 -93 148 0 71 -2 80 -20 85 -15 4 -20 14 -20 36 0 24 4 31 20 31 16 0 20 7 20 38 0 30 5 40 28 54 15 9 30 17 35 17 4 1 7 -24 7 -54z m710 -56 l0 -111 47 56 c44 53 50 56 92 56 l45 0 -30 -32 c-16 -18 -31 -35 -34 -38 -3 -3 -17 -19 -33 -36 l-28 -31 61 -78 c33 -43 60 -79 60 -81 0 -2 -17 -4 -39 -4 -35 0 -42 5 -80 55 -23 31 -46 53 -52 50 -5 -4 -9 -28 -9 -56 l0 -49 -35 0 -35 0 0 205 0 205 35 0 35 0 0 -111z m9780 31 c0 -33 -4 -60 -10 -60 -6 0 -10 27 -10 60 0 33 4 60 10 60 6 0 10 -27 10 -60z m61 13 l15 -48 15 44 c22 68 39 65 39 -8 0 -65 -19 -87 -21 -23 l-1 37 -12 -34 c-17 -47 -30 -48 -43 -4 l-10 38 -2 -37 c-2 -59 -21 -45 -21 15 0 83 19 91 41 20z m153 -17 c19 -58 19 -56 6 -56 -5 0 -10 7 -10 15 0 9 -9 15 -25 15 -16 0 -25 -6 -25 -15 0 -8 -4 -15 -10 -15 -5 0 -10 2 -10 4 0 3 21 65 35 105 8 20 20 4 39 -53z m104 47 c2 -9 -5 -11 -28 -7 l-31 7 3 -44 c2 -36 7 -44 23 -44 25 0 32 32 8 38 -15 4 -14 5 4 6 28 1 37 -13 23 -39 -13 -25 -65 -28 -74 -4 -10 27 -7 79 6 92 16 16 60 12 66 -5z m87 7 c-3 -5 -15 -10 -26 -10 -10 0 -19 -7 -19 -15 0 -8 9 -15 20 -15 11 0 20 -4 20 -10 0 -5 -9 -10 -20 -10 -33 0 -26 -38 8 -43 22 -3 20 -4 -10 -6 l-38 -1 0 53 c0 30 3 57 7 60 11 11 65 8 58 -3z m62 -82 c-2 -18 -4 -4 -4 32 0 36 2 50 4 33 2 -18 2 -48 0 -65z m94 82 c14 -8 19 -21 19 -48 0 -45 -14 -62 -52 -62 -28 0 -28 1 -28 60 0 54 2 60 21 60 11 0 29 -5 40 -10z m153 3 c-12 -2 -24 -12 -27 -23 -3 -14 2 -19 25 -24 25 -5 29 -10 26 -33 -3 -24 -8 -28 -38 -30 -34 -1 -34 -1 -5 5 41 10 42 46 2 50 -21 3 -27 8 -23 19 3 8 6 21 6 29 0 9 10 14 28 13 21 -1 23 -3 6 -6z m104 -5 c18 -18 15 -33 -13 -67 l-26 -30 28 -4 c23 -3 21 -4 -10 -6 l-38 -1 32 39 c35 44 34 77 -1 68 -11 -3 -18 -1 -14 4 7 13 28 11 42 -3z m77 0 c-20 -11 -35 -28 -35 -38 0 -3 12 -6 26 -5 34 0 53 -27 35 -49 -29 -34 -71 -8 -71 43 0 23 33 61 53 61 6 0 3 -6 -8 -12z m104 3 c9 -6 12 -18 8 -32 -3 -13 -1 -29 5 -36 14 -18 -7 -43 -37 -43 -26 0 -41 26 -26 44 6 7 7 22 4 35 -5 20 8 41 27 41 3 0 11 -4 19 -9z m95 -7 c20 -19 21 -78 1 -94 -41 -34 -83 36 -51 85 19 29 29 31 50 9z m76 7 c-32 -9 -39 -38 -9 -43 54 -8 45 -69 -10 -67 -25 1 -25 2 4 8 41 8 42 45 3 49 -21 3 -28 9 -28 26 0 29 8 36 39 35 l26 -1 -25 -7z m197 -3 c5 -7 9 -33 8 -58 0 -44 -1 -45 -35 -47 -34 -1 -34 -1 -5 5 37 9 48 42 13 42 l-23 0 24 19 c30 23 19 45 -18 37 -19 -5 -22 -4 -11 4 20 13 36 13 47 -2z m106 -70 c9 -6 9 -8 0 -8 -7 0 -14 -8 -14 -17 -1 -17 -2 -17 -6 0 -3 11 -14 17 -34 17 l-29 0 33 46 32 46 3 -38 c2 -21 9 -42 15 -46z m-193 37 c0 -21 5 -35 13 -35 8 0 9 -3 1 -8 -6 -4 -14 -14 -17 -22 -4 -12 -6 -11 -6 3 -1 12 -9 17 -31 17 l-30 0 26 40 c33 49 44 50 44 5z m-673 -7 c-3 -8 -6 -5 -6 6 -1 11 2 17 5 13 3 -3 4 -12 1 -19z m-12855 -49 c14 -8 15 -14 7 -39 -9 -26 -13 -28 -35 -19 -38 14 -80 11 -95 -7 -11 -14 -11 -18 4 -29 10 -7 35 -15 57 -19 96 -15 119 -117 38 -166 -37 -22 -107 -26 -157 -9 -33 12 -34 13 -22 44 7 17 17 20 82 20 67 0 74 2 74 20 0 19 -16 27 -76 40 -48 9 -74 39 -74 83 0 47 24 78 69 91 33 10 100 5 128 -10z m1131 10 c51 -14 77 -57 77 -126 l0 -53 -85 0 c-76 0 -85 -2 -85 -19 0 -39 34 -48 105 -27 11 3 29 -1 40 -9 19 -15 19 -16 -8 -43 -24 -23 -35 -27 -88 -27 -56 0 -63 3 -90 33 -27 31 -29 37 -29 121 0 100 16 133 73 150 43 12 46 12 90 0z m265 -26 c3 -31 1 -33 -27 -33 -49 0 -61 -29 -61 -142 l0 -98 -30 0 -30 0 0 123 c0 115 2 125 23 145 28 27 65 42 97 39 20 -2 26 -8 28 -34z m182 26 c54 -11 56 -15 39 -53 -10 -21 -15 -23 -36 -15 -37 14 -79 11 -94 -7 -11 -14 -11 -18 4 -29 10 -7 35 -15 56 -19 52 -8 80 -33 87 -77 12 -74 -74 -125 -178 -105 -52 10 -61 19 -48 48 11 23 16 24 83 24 60 -1 72 2 75 16 4 19 -12 28 -86 48 -34 9 -46 18 -60 46 -16 34 -15 37 3 72 14 25 31 41 55 49 44 15 40 15 100 2z m712 1 c33 -10 78 -50 78 -70 0 -5 -13 -13 -29 -18 -23 -8 -31 -7 -45 9 -19 23 -59 25 -80 3 -19 -19 -22 -134 -4 -152 19 -19 76 -15 89 7 10 15 16 16 41 7 34 -13 36 -29 4 -61 -46 -45 -144 -45 -187 1 -20 21 -24 38 -27 99 -6 111 18 161 83 178 32 8 38 7 77 -3z m446 -22 c2 -19 -2 -28 -18 -33 -37 -12 -64 27 -38 53 21 21 53 10 56 -20z m-2338 -93 c0 -105 2 -115 20 -125 12 -6 33 -10 48 -8 l27 3 3 123 3 122 34 0 35 0 0 -143 0 -144 -39 -11 c-82 -25 -162 -8 -186 39 -11 20 -15 61 -15 144 l0 115 35 0 35 0 0 -115z m1610 81 c0 -34 -1 -35 -42 -38 -43 -3 -43 -3 -46 -45 -3 -42 -4 -43 -39 -43 l-35 0 4 57 c6 75 36 103 109 103 l49 0 0 -34z m95 -163 c-1 -75 -29 -103 -102 -103 l-54 0 3 33 c3 29 6 32 43 37 39 5 40 6 43 48 3 42 4 43 35 40 32 -3 32 -4 32 -55z m10637 -25 c-3 -61 -12 -60 -12 2 0 29 3 50 7 47 3 -4 6 -26 5 -49z m671 9 c14 11 17 12 10 2 -10 -12 -9 -20 4 -40 16 -24 16 -24 -3 -6 -12 9 -23 17 -27 17 -3 0 -8 -8 -10 -17 -3 -10 -4 7 -4 37 0 33 2 42 4 22 4 -34 5 -34 26 -15z m-501 -8 c-3 -20 0 -34 9 -40 11 -7 11 -9 -2 -9 -12 0 -18 11 -21 41 -4 41 -1 52 12 44 4 -2 5 -18 2 -36z m50 0 c-3 -20 0 -34 9 -40 11 -7 11 -9 -2 -9 -12 0 -18 11 -22 38 -4 39 -1 55 12 48 4 -3 6 -19 3 -37z m250 23 c-16 -5 -15 -59 1 -65 7 -3 5 -6 -5 -6 -15 -1 -18 7 -18 44 0 38 3 43 17 38 11 -4 12 -8 5 -11z m-525 -3 c-9 -6 -14 -15 -11 -21 4 -7 2 -8 -5 -4 -14 9 3 36 23 36 6 0 3 -5 -7 -11z m98 0 c11 -16 1 -19 -13 -3 -7 8 -8 14 -3 14 5 0 13 -5 16 -11z m253 -1 c7 -7 12 -16 12 -22 0 -5 -6 -2 -13 9 -17 23 -34 13 -34 -19 0 -18 6 -26 23 -29 20 -4 19 -4 -3 -3 -21 1 -29 7 -31 24 -3 22 13 52 27 52 4 0 12 -5 19 -12z m60 0 c-9 -7 -19 -26 -21 -43 -4 -27 -4 -27 -6 7 -1 34 7 45 33 47 6 1 2 -5 -6 -11z m50 5 c-24 -6 -23 -20 2 -33 30 -16 25 -40 -7 -39 -24 2 -25 2 -5 6 27 5 28 10 0 32 -23 19 -17 42 10 40 15 -1 15 -2 0 -6z m142 -8 c17 -20 4 -65 -18 -65 -22 0 -42 19 -42 40 0 35 38 51 60 25z m58 4 c-10 -5 -22 -17 -27 -27 -6 -9 -11 -12 -11 -5 0 15 28 43 43 43 7 0 4 -5 -5 -11z m256 -5 c9 -8 16 -20 16 -26 0 -6 -8 0 -18 12 -22 27 -42 19 -42 -17 0 -22 4 -25 26 -20 16 3 22 1 16 -5 -30 -30 -69 25 -42 58 16 18 25 18 44 -2z m124 3 c6 -5 11 -23 11 -40 l-2 -32 -6 35 c-4 22 -12 35 -21 35 -9 0 -17 -13 -21 -35 -6 -35 -6 -35 -8 -4 0 16 -5 34 -10 40 -12 11 38 12 57 1z m-1390 -28 c-3 -8 -7 -3 -11 10 -4 17 -3 21 5 13 5 -5 8 -16 6 -23z m42 28 c0 -10 -33 -68 -36 -64 -6 6 20 67 28 67 4 0 8 -2 8 -3z m127 -20 l12 28 -6 -30 c-8 -43 -21 -52 -29 -22 -3 15 -10 24 -15 21 -11 -6 -12 10 -1 20 4 5 11 -4 16 -18 l10 -26 13 27z m43 -17 c4 0 10 10 14 23 5 18 8 20 16 7 5 -8 10 -19 10 -25 0 -5 -4 -3 -9 4 -8 12 -11 9 -16 -12 -4 -15 -11 -27 -15 -27 -9 0 -20 37 -19 60 1 8 4 5 6 -7 2 -13 8 -23 13 -23z m330 5 c0 -32 -2 -35 -30 -35 -16 0 -30 4 -30 8 0 5 10 8 23 8 17 -1 23 5 25 27 5 38 12 34 12 -8z m612 10 c-3 -19 1 -27 19 -34 24 -10 24 -10 2 -10 -24 -1 -42 37 -28 58 10 17 13 13 7 -14z m151 -7 c-8 -46 -13 -48 -13 -5 0 21 4 37 10 37 5 0 7 -14 3 -32z m-1206 0 c-3 -8 -6 -5 -6 6 -1 11 2 17 5 13 3 -3 4 -12 1 -19z m-32 -19 c-6 -17 -9 -19 -16 -8 -5 8 -9 19 -9 24 0 6 5 3 10 -5 8 -13 10 -12 10 4 0 11 3 17 6 13 3 -3 3 -15 -1 -28z m201 -5 c-4 -9 -9 -15 -11 -12 -3 3 -3 13 1 22 4 9 9 15 11 12 3 -3 3 -13 -1 -22z m109 5 c0 -8 -11 -14 -28 -15 -26 -1 -26 -1 -2 3 23 4 24 7 13 20 -11 14 -11 15 2 11 8 -2 15 -11 15 -19z m-263 -11 c-7 -7 -12 -8 -12 -2 0 14 12 26 19 19 2 -3 -1 -11 -7 -17z m904 -6 c-10 -2 -22 0 -28 6 -6 6 0 7 19 4 21 -5 23 -7 9 -10z"></path> <path d="M13167 630 c-3 -12 0 -20 8 -20 8 0 11 8 8 20 -3 11 -7 20 -8 20 -1 0 -5 -9 -8 -20z"></path> <path d="M13500 621 c0 -43 9 -55 34 -45 11 4 16 19 16 45 0 35 -3 39 -25 39 -22 0 -25 -4 -25 -39z"></path> <path d="M13856 611 c-10 -16 5 -41 24 -41 19 0 34 25 24 41 -3 5 -14 9 -24 9 -10 0 -21 -4 -24 -9z"></path> <path d="M13957 664 c-14 -15 -6 -34 14 -34 14 0 19 5 17 17 -3 18 -20 27 -31 17z"></path> <path d="M13945 600 c-4 -7 -3 -16 3 -22 14 -14 47 -6 47 12 0 18 -40 26 -50 10z"></path> <path d="M14040 644 c-13 -34 -2 -74 20 -74 29 0 42 64 18 88 -18 18 -27 15 -38 -14z"></path> <path d="M14416 625 c-16 -24 -16 -25 4 -25 15 0 20 7 20 25 0 14 -2 25 -4 25 -2 0 -11 -11 -20 -25z"></path> <path d="M14237 630 c-18 -29 -18 -30 2 -30 17 0 21 6 21 30 0 17 -1 30 -3 30 -1 0 -11 -13 -20 -30z"></path> <path d="M1792 518 c-7 -7 -12 -22 -12 -35 0 -21 4 -23 50 -23 46 0 50 2 50 25 0 38 -60 61 -88 33z"></path> <path d="M3461 564 c0 -11 3 -14 6 -6 3 7 2 16 -1 19 -3 4 -6 -2 -5 -13z"></path> <path d="M13984 376 c-9 -24 4 -48 23 -44 12 2 18 12 18 28 0 29 -32 41 -41 16z"></path> </g> </svg> 